<?xml version="1.0" encoding="UTF-8" standalone="no"?>
<svg
   viewBox="0 0 80 15"
   version="1.1"
   id="svg18"
   sodipodi:docname="CC-BY-SA.min.svg"
   inkscape:version="1.1 (c68e22c387, 2021-05-23)"
   xmlns:inkscape="http://www.inkscape.org/namespaces/inkscape"
   xmlns:sodipodi="http://sodipodi.sourceforge.net/DTD/sodipodi-0.dtd"
   xmlns="http://www.w3.org/2000/svg"
   xmlns:svg="http://www.w3.org/2000/svg">
  <defs
     id="defs22" />
  <sodipodi:namedview
     id="namedview20"
     pagecolor="#ffffff"
     bordercolor="#666666"
     borderopacity="1.0"
     inkscape:pageshadow="2"
     inkscape:pageopacity="0.0"
     inkscape:pagecheckerboard="0"
     showgrid="false"
     inkscape:zoom="78.347431"
     inkscape:cx="13.382698"
     inkscape:cy="7.9262331"
     inkscape:current-layer="svg18" />
  <path
     d="M22.502 2C22.508 2.005 25 4.005 25 7.5c0 3.5-2.5 5.5-2.5 5.5H78V2z"
     fill="#000"
     id="path2" />
  <path
     d="M2 2v11h5.824a7.814 7.814 0 01-2.12-3.621c-.17-.636-.195-.87-.196-1.856-.002-.987.022-1.216.187-1.83.373-1.39 1.01-2.526 1.985-3.547.048-.05.097-.098.146-.146zm16.49 0c.392.379.745.801 1.053 1.264 1.507 2.266 1.672 5.35.418 7.779A7.437 7.437 0 0118.484 13H22.5S25 11 25 7.5 22.5 2 22.5 2z"
     fill="#abb1aa"
     id="path4" />
  <path
     d="M10.135 2.002c-2.076 1.161-3.398 3.49-3.258 5.812.136 2.27 1.47 4.179 3.309 5.186h5.966a6.25 6.25 0 003.088-3.865c.218-.808.222-2.369.008-3.178-.45-1.7-1.58-3.147-3.05-3.955h-6.063zm.926 3.154c.364.002.731.063 1.007.182.333.144.961.712.961.869 0 .025-.216.155-.48.285l-.483.237-.255-.258c-.144-.143-.366-.276-.498-.301-.332-.062-.725.084-.905.336-.296.416-.318 1.504-.037 1.933.145.222.391.377.621.395.485.037.609-.003.895-.305l.289-.304.373.205a4.242 4.242 0 01.437.265c.126.114-.45.702-.914.934-.394.197-.519.222-1.037.217-.326-.003-.724-.053-.889-.112-.698-.247-1.234-.973-1.328-1.8-.14-1.228.323-2.18 1.264-2.608.255-.115.614-.172.979-.17z"
     fill="#fff"
     id="path6" />
  <path
     d="M16.189 2c1.472.809 2.602 2.257 3.051 3.957.214.81.21 2.369-.008 3.176A6.25 6.25 0 0116.144 13h2.342a7.437 7.437 0 001.477-1.957c1.254-2.429 1.089-5.513-.418-7.78A7.656 7.656 0 0018.492 2zM7.826 2c-.049.049-.098.096-.146.146-.975 1.02-1.612 2.158-1.985 3.547-.165.614-.189.843-.187 1.83 0 .986.027 1.22.195 1.856A7.814 7.814 0 007.824 13h2.354c-1.839-1.008-3.174-2.916-3.31-5.186C6.726 5.491 8.05 3.161 10.126 2z"
     fill="#000"
     id="path10" />
  <path
     d="M29 10V5h3s1 .25 1 1.25-1 1.25-1 1.25 1 .25 1 1.25S32 10 32 10zm1-1h1.5s.5 0 .5-.5-.5-.5-.5-.5H30zm0-2h1.5s.5 0 .5-.5-.5-.5-.5-.5H30zm3.5-2L36 7.5V10h1V7.5L39.5 5h-1.25L36.5 6.75 34.75 5zM40 7h3v1h-3zm9-2h-3s-1 .25-1 1.5S46 8 46 8h1.5s.5 0 .5.5-.5.5-.5.5H45v1h3s1 0 1-1.5S48 7 48 7h-1.5s-.5 0-.5-.5.5-.5.5-.5H49zm2 0c-1 0-1 1-1 1v4h1V8h2v2h1V6s0-1-1-1zm.5 1h1c.5 0 .5.5.5.5v.502h-2V6.5s0-.5.5-.5z"
     fill="#fff"
     id="path12" />
  <path
     d="M1 1v13h78V1H1zm1 1h76v11H2V2z"
     fill="#fff"
     id="path14" />
  <path
     d="M0 0v15h80V0H0zm1 1h78v13H1V1z"
     fill="#000"
     id="path16" />
  <g
     aria-label="CC"
     id="text4163"
     style="font-weight:bold;font-size:6.22065px;font-family:Comfortaa;-inkscape-font-specification:'Comfortaa Bold';text-align:center;text-anchor:middle;vector-effect:non-scaling-stroke;stroke-width:0.00155195;stroke-linejoin:round;-inkscape-stroke:hairline">
    <path
       d="m 11.095164,8.9993045 q 0.810993,0 1.126885,-0.8140304 l 0.780619,0.2946304 q -0.252107,0.6196351 -0.741132,0.9233778 -0.485989,0.3007053 -1.166372,0.3007053 -1.032725,0 -1.5976867,-0.583186 -0.5619239,-0.5862234 -0.5619239,-1.6371731 0,-1.0539871 0.5436994,-1.6189485 0.5436992,-0.5649614 1.5764242,-0.5649614 0.753282,0 1.227121,0.3037427 0.473838,0.3007053 0.665196,0.8869286 L 12.158263,6.7060473 Q 12.058028,6.38408 11.763398,6.1957595 11.471805,6.0044017 11.073902,6.0044017 q -0.607486,0 -0.923378,0.3766409 -0.3128549,0.3766409 -0.3128549,1.1025859 0,0.7380948 0.3219669,1.1268854 0.325005,0.3887906 0.935528,0.3887906 z"
       style="font-family:'Liberation Sans';-inkscape-font-specification:'Liberation Sans Bold'"
       id="path17017" />
    <path
       d="m 15.587518,8.9993045 q 0.810993,0 1.126886,-0.8140304 l 0.780618,0.2946304 q -0.252106,0.6196351 -0.741132,0.9233778 -0.485988,0.3007053 -1.166372,0.3007053 -1.032725,0 -1.597686,-0.583186 -0.561924,-0.5862234 -0.561924,-1.6371731 0,-1.0539871 0.543699,-1.6189485 0.5437,-0.5649614 1.576425,-0.5649614 0.753282,0 1.22712,0.3037427 0.473839,0.3007053 0.665197,0.8869286 L 16.650618,6.7060473 Q 16.550383,6.38408 16.255752,6.1957595 15.964159,6.0044017 15.566256,6.0044017 q -0.607485,0 -0.923378,0.3766409 -0.312854,0.3766409 -0.312854,1.1025859 0,0.7380948 0.321967,1.1268854 0.325004,0.3887906 0.935527,0.3887906 z"
       style="font-family:'Liberation Sans';-inkscape-font-specification:'Liberation Sans Bold'"
       id="path17019" />
  </g>
</svg>
