<?xml version="1.0" encoding="UTF-8" standalone="no"?>
<!-- Created with Inkscape (http://www.inkscape.org/) -->

<svg
   width="512"
   height="512"
   viewBox="0 0 135.46667 135.46667"
   version="1.1"
   id="svg5"
   sodipodi:docname="No cookies.svg"
   inkscape:version="1.1 (c68e22c387, 2021-05-23)"
   xmlns:inkscape="http://www.inkscape.org/namespaces/inkscape"
   xmlns:sodipodi="http://sodipodi.sourceforge.net/DTD/sodipodi-0.dtd"
   xmlns="http://www.w3.org/2000/svg"
   xmlns:svg="http://www.w3.org/2000/svg">
  <sodipodi:namedview
     id="namedview16"
     pagecolor="#ffffff"
     bordercolor="#666666"
     borderopacity="1.0"
     inkscape:pageshadow="2"
     inkscape:pageopacity="0.0"
     inkscape:pagecheckerboard="0"
     showgrid="false"
     inkscape:snap-bbox="true"
     inkscape:bbox-paths="true"
     inkscape:bbox-nodes="true"
     inkscape:snap-bbox-edge-midpoints="true"
     inkscape:snap-bbox-midpoints="true"
     inkscape:object-paths="true"
     inkscape:snap-intersection-paths="true"
     inkscape:snap-smooth-nodes="true"
     inkscape:snap-midpoints="true"
     inkscape:snap-object-midpoints="true"
     inkscape:snap-center="true"
     inkscape:snap-text-baseline="true"
     inkscape:snap-page="true"
     inkscape:zoom="0.9765625"
     inkscape:cx="-4.096"
     inkscape:cy="256"
     inkscape:current-layer="svg5" />
  <defs
     id="defs2" />
  <path
     id="path31"
     style="fill:#1a1a1a;stroke-width:0.464227"
     d="M 135.46667,67.733335 A 67.733343,67.733335 0 0 1 67.733342,135.46667 67.733343,67.733335 0 0 1 0,67.733335 67.733343,67.733335 0 0 1 67.733342,0 67.733343,67.733335 0 0 1 135.46667,67.733335 Z" />
  <path
     id="path31-6"
     style="fill:#deaa87;stroke-width:0.279024"
     d="M 67.733341,27.022072 A 40.711253,40.711247 0 0 0 27.022015,67.733334 40.711253,40.711247 0 0 0 67.733341,108.4446 40.711253,40.711247 0 0 0 108.44467,67.733334 a 40.711253,40.711247 0 0 0 -1.20538,-9.82013 10.36935,10.265623 0 0 1 -5.28719,1.479348 10.36935,10.265623 0 0 1 -9.404604,-5.953054 10.36935,10.265623 0 0 1 -4.410847,0.978655 10.36935,10.265623 0 0 1 -10.369047,-10.265576 10.36935,10.265623 0 0 1 0.797592,-3.934205 10.36935,10.265623 0 0 1 -3.196119,-7.406531 10.36935,10.265623 0 0 1 1.261473,-4.802722 40.711253,40.711247 0 0 0 -8.897207,-0.987047 z" />
  <path
     id="path366"
     style="fill:#502d16;stroke-width:0.181549"
     d="m 57.411269,69.107358 a 4.0660595,3.953503 0 0 1 -4.066059,3.953502 4.0660595,3.953503 0 0 1 -4.06606,-3.953502 4.0660595,3.953503 0 0 1 4.06606,-3.953503 4.0660595,3.953503 0 0 1 4.066059,3.953503 z" />
  <path
     id="path366-7"
     style="fill:#502d16;stroke-width:0.181549"
     d="m 44.396376,77.512952 a 4.0660595,3.953503 0 0 1 -4.06606,3.953503 4.0660595,3.953503 0 0 1 -4.06606,-3.953503 4.0660595,3.953503 0 0 1 4.06606,-3.953503 4.0660595,3.953503 0 0 1 4.06606,3.953503 z" />
  <path
     id="path366-7-5"
     style="fill:#502d16;stroke-width:0.181549"
     d="m 41.702676,57.775153 a 4.0660595,3.953503 0 0 1 -4.066059,3.953503 4.0660595,3.953503 0 0 1 -4.06606,-3.953503 4.0660595,3.953503 0 0 1 4.06606,-3.953503 4.0660595,3.953503 0 0 1 4.066059,3.953503 z" />
  <path
     id="path366-7-3"
     style="fill:#502d16;stroke-width:0.181549"
     d="m 58.400981,93.725051 a 4.0660595,3.953503 0 0 1 -4.06606,3.953508 4.0660595,3.953503 0 0 1 -4.066059,-3.953508 4.0660595,3.953503 0 0 1 4.066059,-3.953503 4.0660595,3.953503 0 0 1 4.06606,3.953503 z" />
  <path
     id="path366-7-3-9"
     style="fill:#502d16;stroke-width:0.181549"
     d="m 80.484784,59.74763 a 4.0660595,3.953503 0 0 1 -4.066058,3.953502 4.0660595,3.953503 0 0 1 -4.06606,-3.953502 4.0660595,3.953503 0 0 1 4.06606,-3.953504 4.0660595,3.953503 0 0 1 4.066058,3.953504 z" />
  <path
     id="path366-7-3-9-7"
     style="fill:#502d16;stroke-width:0.181549"
     d="m 98.921559,72.457649 a 4.0660595,3.953503 0 0 1 -4.066056,3.953503 4.0660595,3.953503 0 0 1 -4.066059,-3.953503 4.0660595,3.953503 0 0 1 4.066059,-3.953504 4.0660595,3.953503 0 0 1 4.066056,3.953504 z" />
  <path
     id="path366-7-3-9-7-1"
     style="fill:#502d16;stroke-width:0.181549"
     d="m 62.482226,36.220756 a 4.0660595,3.953503 0 0 1 -4.066059,3.953504 4.0660595,3.953503 0 0 1 -4.06606,-3.953504 4.0660595,3.953503 0 0 1 4.06606,-3.953502 4.0660595,3.953503 0 0 1 4.066059,3.953502 z" />
  <path
     id="path366-7-3-9-7-8"
     style="fill:#502d16;stroke-width:0.181549"
     d="m 84.381726,95.798219 a 4.0660595,3.953503 0 0 1 -4.06606,3.953502 4.0660595,3.953503 0 0 1 -4.066059,-3.953502 4.0660595,3.953503 0 0 1 4.066059,-3.953503 4.0660595,3.953503 0 0 1 4.06606,3.953503 z" />
  <path
     id="path366-7-3-9-7-8-0"
     style="fill:#502d16;stroke-width:0.181549"
     d="m 70.878393,47.590133 a 4.0660595,3.953503 0 0 1 -4.066058,3.953504 4.0660595,3.953503 0 0 1 -4.06606,-3.953504 4.0660595,3.953503 0 0 1 4.06606,-3.953503 4.0660595,3.953503 0 0 1 4.066058,3.953503 z" />
  <path
     id="rect884"
     style="fill:#ff0000;stroke-width:0.174105"
     d="M 67.733341,7.5684458 A 61.877837,60.164939 0 0 0 5.8555561,67.733334 61.877837,60.164939 0 0 0 67.733341,127.89823 61.877837,60.164939 0 0 0 129.61112,67.733334 61.877837,60.164939 0 0 0 67.733341,7.5684458 Z m 0,11.4363332 A 50.115933,48.728627 0 0 1 117.8492,67.733334 50.115933,48.728627 0 0 1 106.82078,98.033731 L 37.383458,29.052267 A 50.115933,48.728627 0 0 1 67.733341,19.004779 Z M 28.645901,37.432941 98.083222,106.41441 A 50.115933,48.728627 0 0 1 67.733341,116.46188 50.115933,48.728627 0 0 1 17.617481,67.733334 50.115933,48.728627 0 0 1 28.645901,37.432941 Z" />
</svg>
