<?xml version="1.0" encoding="UTF-8" standalone="no"?>
<!-- Created with Inkscape (http://www.inkscape.org/) -->

<svg
   xmlns:dc="http://purl.org/dc/elements/1.1/"
   xmlns:cc="http://creativecommons.org/ns#"
   xmlns:rdf="http://www.w3.org/1999/02/22-rdf-syntax-ns#"
   xmlns:svg="http://www.w3.org/2000/svg"
   xmlns="http://www.w3.org/2000/svg"
   xmlns:sodipodi="http://sodipodi.sourceforge.net/DTD/sodipodi-0.dtd"
   xmlns:inkscape="http://www.inkscape.org/namespaces/inkscape"
   width="100mm"
   height="100mm"
   viewBox="0 0 100 100"
   version="1.1"
   id="svg46"
   inkscape:version="0.92.4 (5da689c313, 2019-01-14)"
   sodipodi:docname="Pin2Top.svg"
   inkscape:export-filename="C:\Users\Nomad\Code\nomadicvoxel.github.io\v2\images\Pin2Top.png"
   inkscape:export-xdpi="208.89"
   inkscape:export-ydpi="208.89">
  <defs
     id="defs40">
    <clipPath
       id="cp1">
      <polygon
         points="172,158 172,208 156,224 39,108 56,91 106,91 164,32 157,24 172,8 256,91 240,107 231,99 "
         id="polygon2" />
    </clipPath>
    <clipPath
       id="cp3">
      <polygon
         points="32.1517,248.72 0,248.114 91.6019,156.512 107.981,172.284 "
         id="polygon9" />
    </clipPath>
  </defs>
  <sodipodi:namedview
     id="base"
     pagecolor="#ffffff"
     bordercolor="#666666"
     borderopacity="1.0"
     inkscape:pageopacity="0.0"
     inkscape:pageshadow="2"
     inkscape:zoom="1.4"
     inkscape:cx="58.064548"
     inkscape:cy="190.33442"
     inkscape:document-units="mm"
     inkscape:current-layer="layer1"
     showgrid="false"
     inkscape:window-width="1366"
     inkscape:window-height="715"
     inkscape:window-x="-8"
     inkscape:window-y="-8"
     inkscape:window-maximized="1" />
  <metadata
     id="metadata43">
    <rdf:RDF>
      <cc:Work
         rdf:about="">
        <dc:format>image/svg+xml</dc:format>
        <dc:type
           rdf:resource="http://purl.org/dc/dcmitype/StillImage" />
        <dc:title />
      </cc:Work>
    </rdf:RDF>
  </metadata>
  <g
     inkscape:label="Layer 1"
     inkscape:groupmode="layer"
     id="layer1"
     transform="translate(0,-197)">
    <polygon
       transform="matrix(0.38146418,0,0,0.38146418,1.1839109,198.02999)"
       style="fill:#6141e1;fill-opacity:0.5;stroke:#000000;stroke-width:10;stroke-opacity:1"
       points="164,32 157,24 172,8 256,91 240,107 231,99 172,158 172,208 156,224 39,108 56,91 106,91 "
       clip-path="url(#cp1)"
       id="polygon5" />
    <rect
       style="fill:#ffffff;fill-opacity:0.75;stroke-width:0.38146415"
       x="202.83727"
       y="103.65289"
       width="9.1710091"
       height="31.560287"
       transform="rotate(45)"
       id="rect7" />
    <polygon
       transform="matrix(0.38758987,0,0,0.38812533,1.1839109,196.37323)"
       style="fill:#afafaf;stroke:#000000;stroke-width:10;stroke-opacity:1"
       points="107.981,172.284 32.1517,248.72 0,248.114 91.6019,156.512 "
       clip-path="url(#cp3)"
       id="polygon12" />
    <polygon
       transform="matrix(0.38146418,0,0,0.38146418,1.1839109,198.02999)"
       style="fill:#000000;fill-opacity:0.5"
       points="251,91 239,103 232,97 170,158 170,205 157,221 139,202 149,159 236,75 "
       id="polygon14" />
  </g>
</svg>
