<svg viewBox="0 0 80 15"><path d="M22.502 2C22.508 2.005 25 4.005 25 7.5c0 3.5-2.5 5.5-2.5 5.5H78V2z" fill="#000"/><path d="M2 2v11h5.824a7.814 7.814 0 01-2.12-3.621c-.17-.636-.195-.87-.196-1.856-.002-.987.022-1.216.187-1.83.373-1.39 1.01-2.526 1.985-3.547.048-.05.097-.098.146-.146zm16.49 0c.392.379.745.801 1.053 1.264 1.507 2.266 1.672 5.35.418 7.779A7.437 7.437 0 0118.484 13H22.5S25 11 25 7.5 22.5 2 22.5 2z" fill="#abb1aa"/><path d="M10.135 2.002c-2.076 1.161-3.398 3.49-3.258 5.812.136 2.27 1.47 4.179 3.309 5.186h5.966a6.25 6.25 0 003.088-3.865c.218-.808.222-2.369.008-3.178-.45-1.7-1.58-3.147-3.05-3.955h-6.063zm.926 3.154c.364.002.731.063 1.007.182.333.144.961.712.961.869 0 .025-.216.155-.48.285l-.483.237-.255-.258c-.144-.143-.366-.276-.498-.301-.332-.062-.725.084-.905.336-.296.416-.318 1.504-.037 1.933.145.222.391.377.621.395.485.037.609-.003.895-.305l.289-.304.373.205a4.242 4.242 0 01.437.265c.126.114-.45.702-.914.934-.394.197-.519.222-1.037.217-.326-.003-.724-.053-.889-.112-.698-.247-1.234-.973-1.328-1.8-.14-1.228.323-2.18 1.264-2.608.255-.115.614-.172.979-.17z" fill="#fff"/><path d="M11.061 5.156c-.365-.002-.724.055-.979.17-.941.428-1.404 1.38-1.264 2.608.094.827.63 1.553 1.328 1.8.165.059.564.109.89.112.518.005.642-.02 1.036-.217.464-.232 1.04-.82.914-.934a4.242 4.242 0 00-.437-.265l-.373-.205-.29.304c-.286.302-.409.342-.894.305-.23-.018-.475-.172-.62-.394-.281-.429-.26-1.518.036-1.934.18-.252.574-.398.905-.336.133.025.354.157.498.3l.255.259.483-.237c.264-.13.48-.26.48-.285 0-.157-.627-.725-.96-.869-.276-.119-.644-.18-1.008-.182zm4.335-.004c-.322.008-.635.065-.875.174-.943.429-1.425 1.435-1.261 2.633.113.827.638 1.531 1.326 1.775.165.059.565.108.889.112.518.005.642-.02 1.037-.217.385-.193.959-.726.959-.893 0-.025-.2-.148-.444-.271l-.443-.223-.23.264c-.512.587-1.413.413-1.66-.32-.122-.361-.106-1.154.03-1.477.153-.361.435-.533.874-.533.318 0 .38.029.613.283l.26.281.5-.242c.275-.133.5-.262.5-.287 0-.148-.575-.674-.918-.842-.312-.153-.742-.226-1.157-.217z" fill="#000"/><path d="M16.189 2c1.472.809 2.602 2.257 3.051 3.957.214.81.21 2.369-.008 3.176A6.25 6.25 0 0116.144 13h2.342a7.437 7.437 0 001.477-1.957c1.254-2.429 1.089-5.513-.418-7.78A7.656 7.656 0 0018.492 2zM7.826 2c-.049.049-.098.096-.146.146-.975 1.02-1.612 2.158-1.985 3.547-.165.614-.189.843-.187 1.83 0 .986.027 1.22.195 1.856A7.814 7.814 0 007.824 13h2.354c-1.839-1.008-3.174-2.916-3.31-5.186C6.726 5.491 8.05 3.161 10.126 2z" fill="#000"/><path d="M29 10V5h3s1 .25 1 1.25-1 1.25-1 1.25 1 .25 1 1.25S32 10 32 10zm1-1h1.5s.5 0 .5-.5-.5-.5-.5-.5H30zm0-2h1.5s.5 0 .5-.5-.5-.5-.5-.5H30zm3.5-2L36 7.5V10h1V7.5L39.5 5h-1.25L36.5 6.75 34.75 5zM40 7h3v1h-3zm9-2h-3s-1 .25-1 1.5S46 8 46 8h1.5s.5 0 .5.5-.5.5-.5.5H45v1h3s1 0 1-1.5S48 7 48 7h-1.5s-.5 0-.5-.5.5-.5.5-.5H49zm2 0c-1 0-1 1-1 1v4h1V8h2v2h1V6s0-1-1-1zm.5 1h1c.5 0 .5.5.5.5v.502h-2V6.5s0-.5.5-.5z" fill="#fff"/><path d="M1 1v13h78V1H1zm1 1h76v11H2V2z" fill="#fff"/><path d="M0 0v15h80V0H0zm1 1h78v13H1V1z" fill="#000"/></svg>