<?xml version="1.0" encoding="UTF-8" standalone="no"?>
<!-- Created with Inkscape (http://www.inkscape.org/) -->

<svg
   width="512"
   height="512"
   viewBox="0 0 135.46667 135.46667"
   version="1.1"
   id="svg5"
   xmlns="http://www.w3.org/2000/svg"
   xmlns:svg="http://www.w3.org/2000/svg">
  <defs
     id="defs2" />
  <path
     id="path31"
     style="fill:#1a1a1a;stroke-width:0.486672"
     d="M 137.75178,67.733337 A 70.018455,72.011874 0 0 1 67.733337,139.74521 70.018455,72.011874 0 0 1 -2.2851166,67.733337 70.018455,72.011874 0 0 1 67.733337,-4.2785376 70.018455,72.011874 0 0 1 137.75178,67.733337 Z" />
  <path
     id="path31-6"
     style="fill:#deaa87;stroke-width:0.292514"
     d="M 67.733336,24.450448 A 42.084724,43.282871 0 0 0 25.648537,67.733336 42.084724,43.282871 0 0 0 67.733336,111.01622 42.084724,43.282871 0 0 0 109.81814,67.733336 42.084724,43.282871 0 0 0 108.5721,57.292894 a 10.71918,10.914075 0 0 1 -5.46557,1.572794 10.71918,10.914075 0 0 1 -9.721886,-6.329093 10.71918,10.914075 0 0 1 -4.559655,1.040474 10.71918,10.914075 0 0 1 -10.718867,-10.914026 10.71918,10.914075 0 0 1 0.8245,-4.182719 10.71918,10.914075 0 0 1 -3.303946,-7.874381 10.71918,10.914075 0 0 1 1.304032,-5.106098 42.084724,43.282871 0 0 0 -9.197372,-1.049397 z" />
  <path
     id="path366"
     style="fill:#502d16;stroke-width:0.190326"
     d="m 57.06303,69.194153 a 4.2032356,4.2032356 0 0 1 -4.203235,4.203235 4.2032356,4.2032356 0 0 1 -4.203236,-4.203235 4.2032356,4.2032356 0 0 1 4.203236,-4.203236 4.2032356,4.2032356 0 0 1 4.203235,4.203236 z" />
  <path
     id="path366-7"
     style="fill:#502d16;stroke-width:0.190326"
     d="m 43.609055,78.130707 a 4.2032356,4.2032356 0 0 1 -4.203236,4.203235 4.2032356,4.2032356 0 0 1 -4.203236,-4.203235 4.2032356,4.2032356 0 0 1 4.203236,-4.203236 4.2032356,4.2032356 0 0 1 4.203236,4.203236 z" />
  <path
     id="path366-7-5"
     style="fill:#502d16;stroke-width:0.190326"
     d="m 40.824478,57.146122 a 4.2032356,4.2032356 0 0 1 -4.203235,4.203236 4.2032356,4.2032356 0 0 1 -4.203236,-4.203236 4.2032356,4.2032356 0 0 1 4.203236,-4.203236 4.2032356,4.2032356 0 0 1 4.203235,4.203236 z" />
  <path
     id="path366-7-3"
     style="fill:#502d16;stroke-width:0.190326"
     d="m 58.086132,95.366882 a 4.2032356,4.2032356 0 0 1 -4.203236,4.203236 4.2032356,4.2032356 0 0 1 -4.203235,-4.203236 4.2032356,4.2032356 0 0 1 4.203235,-4.203235 4.2032356,4.2032356 0 0 1 4.203236,4.203235 z" />
  <path
     id="path366-7-3-9"
     style="fill:#502d16;stroke-width:0.190326"
     d="m 80.914974,59.243195 a 4.2032356,4.2032356 0 0 1 -4.203235,4.203235 4.2032356,4.2032356 0 0 1 -4.203236,-4.203235 4.2032356,4.2032356 0 0 1 4.203236,-4.203236 4.2032356,4.2032356 0 0 1 4.203235,4.203236 z" />
  <path
     id="path366-7-3-9-7"
     style="fill:#502d16;stroke-width:0.190326"
     d="m 99.973751,72.756073 a 4.2032356,4.2032356 0 0 1 -4.203236,4.203236 4.2032356,4.2032356 0 0 1 -4.203235,-4.203236 4.2032356,4.2032356 0 0 1 4.203235,-4.203236 4.2032356,4.2032356 0 0 1 4.203236,4.203236 z" />
  <path
     id="path366-7-3-9-7-1"
     style="fill:#502d16;stroke-width:0.190326"
     d="M 62.305065,34.23019 A 4.2032356,4.2032356 0 0 1 58.10183,38.433426 4.2032356,4.2032356 0 0 1 53.898594,34.23019 4.2032356,4.2032356 0 0 1 58.10183,30.026955 4.2032356,4.2032356 0 0 1 62.305065,34.23019 Z" />
  <path
     id="path366-7-3-9-7-8"
     style="fill:#502d16;stroke-width:0.190326"
     d="m 84.943386,97.571007 a 4.2032356,4.2032356 0 0 1 -4.203236,4.203233 4.2032356,4.2032356 0 0 1 -4.203235,-4.203233 4.2032356,4.2032356 0 0 1 4.203235,-4.203236 4.2032356,4.2032356 0 0 1 4.203236,4.203236 z" />
  <path
     id="path366-7-3-9-7-8-0"
     style="fill:#502d16;stroke-width:0.190326"
     d="m 70.984493,46.317741 a 4.2032356,4.2032356 0 0 1 -4.203235,4.203236 4.2032356,4.2032356 0 0 1 -4.203236,-4.203236 4.2032356,4.2032356 0 0 1 4.203236,-4.203235 4.2032356,4.2032356 0 0 1 4.203235,4.203235 z" />
  <path
     id="rect884"
     style="fill:#ff0000;stroke-width:0.182522"
     d="M 67.733336,3.7679873 A 63.965402,63.965402 0 0 0 3.7679877,67.733336 63.965402,63.965402 0 0 0 67.733336,131.69869 63.965402,63.965402 0 0 0 131.69869,67.733336 63.965402,63.965402 0 0 0 67.733336,3.7679873 Z m 0,12.1587357 a 51.806688,51.806688 0 0 1 51.806614,51.806613 51.806688,51.806688 0 0 1 -11.40048,32.21439 L 36.359543,26.608885 A 51.806688,51.806688 0 0 1 67.733336,15.926723 Z M 27.327208,35.518945 99.107128,108.85779 A 51.806688,51.806688 0 0 1 67.733336,119.53994 51.806688,51.806688 0 0 1 15.926723,67.733336 51.806688,51.806688 0 0 1 27.327208,35.518945 Z" />
</svg>
